<svg fill="none" height="16" viewBox="0 0 16 16" width="16" xmlns="http://www.w3.org/2000/svg"><g fill="#4a555f"><path d="m12.6874 5.23527c-.3536.61249-.9361 1.05942-1.6192 1.24247-.6832.18304-1.41105.08722-2.02354-.2664-.6125-.35363-1.05943-.93608-1.24247-1.61922-.18305-.68315-.08722-1.41103.2664-2.02352s.93607-1.05942 1.61922-1.24247c.68319-.18305 1.41099-.08722 2.02349.2664.6125.35363 1.0594.93607 1.2425 1.61922.183.68315.0872 1.41103-.2664 2.02352zm1.6188 7.86283c-.442.7656-1.1701 1.3243-2.024 1.5531-.854.2288-1.7638.109-2.52943-.333-.76561-.4421-1.32427-1.1701-1.55308-2.024-.22881-.854-.10903-1.7638.333-2.52945.44203-.76561 1.17009-1.32427 2.02401-1.55308.8539-.22881 1.7638-.10903 2.5294.333s1.3243 1.17009 1.5531 2.02403c.2288.8539.109 1.7638-.333 2.5294z"/><path d="m3.76486 9.87524c.51236-.13729.9492-.47249 1.21441-.93185.26522-.45937.33709-1.00528.1998-1.51764-.13728-.51236-.47248-.9492-.93185-1.21441-.45937-.26522-1.00528-.33709-1.51764-.19981-.51236.13729-.94919.47249-1.21441.93186-.26522.45936-.33709 1.00528-.1998 1.51763.13728.51236.47248.9492.93185 1.21442.45937.26521 1.00528.33706 1.51764.1998z"/></g></svg>