<svg width="16" height="16" viewBox="0 0 16 16" fill="none" xmlns="http://www.w3.org/2000/svg">
<path d="M4.33333 15C4.01022 15 3.78544 14.9094 3.659 14.7282C3.54662 14.5469 3.51852 14.3074 3.57471 14.0097L4.12261 11.3495L5.00766 11.5049H3.49042C3.27969 11.5049 3.09706 11.479 2.94253 11.4272C2.80204 11.3625 2.68966 11.2718 2.60536 11.1553C2.53512 11.0388 2.5 10.8964 2.5 10.7282C2.5 10.4693 2.58429 10.2751 2.75287 10.1456C2.9355 10.0162 3.18135 9.95146 3.49042 9.95146H5.32375L4.37548 10.1262L5.32375 5.69903L5.97701 5.8932H3.93295C3.72222 5.8932 3.53959 5.86084 3.38506 5.79612C3.24457 5.73139 3.13218 5.64078 3.04789 5.52427C2.97765 5.40777 2.94253 5.26537 2.94253 5.09709C2.94253 4.83819 3.02682 4.65049 3.1954 4.53398C3.37803 4.40453 3.62388 4.33981 3.93295 4.33981H6.2931L5.53448 4.51456L6.12452 1.81553C6.19476 1.53074 6.31418 1.32363 6.48276 1.19418C6.66539 1.06473 6.89719 1 7.17816 1C7.47318 1 7.68391 1.09061 7.81034 1.27184C7.95083 1.44013 7.98595 1.67961 7.91571 1.99029L7.40996 4.33981H10.0651L10.613 1.81553C10.6833 1.53074 10.8027 1.32363 10.9713 1.19418C11.1539 1.06473 11.3857 1 11.6667 1C11.9617 1 12.1724 1.09061 12.2989 1.27184C12.4393 1.44013 12.4745 1.67961 12.4042 1.99029L11.8563 4.51456L11.2241 4.33981H12.5096C12.7203 4.33981 12.8959 4.37217 13.0364 4.43689C13.1909 4.48867 13.3033 4.57282 13.3736 4.68932C13.4579 4.79288 13.5 4.9288 13.5 5.09709C13.5 5.34304 13.4157 5.53722 13.2471 5.67961C13.0785 5.82201 12.8327 5.8932 12.5096 5.8932H10.887L11.6245 5.69903L10.6762 10.1262L10.023 9.95146H12.0671C12.2778 9.95146 12.4534 9.98382 12.5939 10.0485C12.7484 10.1003 12.8608 10.1845 12.931 10.301C13.0153 10.4175 13.0575 10.5599 13.0575 10.7282C13.0575 10.9741 12.9732 11.1683 12.8046 11.3107C12.636 11.4401 12.3902 11.5049 12.0671 11.5049H9.7069L10.4655 11.3495L9.83333 14.1845C9.77714 14.4693 9.65773 14.6764 9.4751 14.8058C9.30651 14.9353 9.08174 15 8.80077 15C8.50575 15 8.28799 14.9159 8.14751 14.7476C8.02107 14.5663 7.98595 14.3204 8.04215 14.0097L8.59004 11.5049H5.93487L5.3659 14.1845C5.30971 14.4693 5.19029 14.6764 5.00766 14.8058C4.83908 14.9353 4.6143 15 4.33333 15ZM6.25096 9.95146H8.88506L9.74904 5.8932H7.11494L6.25096 9.95146Z" fill="black"/>
</svg>
