<svg width="48" height="48" viewBox="0 0 48 48" fill="none" xmlns="http://www.w3.org/2000/svg">
<rect width="48" height="48" rx="4" fill="#C34468"/>
<path d="M11.822 38.378C11.038 38.378 10.394 38.196 9.89 37.832C9.414 37.468 9.106 36.978 8.966 36.362C8.854 35.746 8.98 35.06 9.344 34.304L20.096 10.742C20.544 9.79002 21.076 9.10402 21.692 8.68403C22.308 8.23602 23.022 8.01202 23.834 8.01202C24.646 8.01202 25.36 8.23602 25.976 8.68403C26.592 9.10402 27.11 9.79002 27.53 10.742L38.366 34.304C38.73 35.06 38.856 35.76 38.744 36.404C38.66 37.02 38.38 37.51 37.904 37.874C37.428 38.21 36.812 38.378 36.056 38.378C35.104 38.378 34.362 38.154 33.83 37.706C33.326 37.258 32.878 36.558 32.486 35.606L29.966 29.768L32.57 31.574H15.056L17.66 29.768L15.182 35.606C14.762 36.586 14.314 37.3 13.838 37.748C13.39 38.168 12.718 38.378 11.822 38.378ZM23.75 15.32L18.374 28.13L17.24 26.492H30.386L29.252 28.13L23.834 15.32H23.75Z" fill="#F8F8F8"/>
</svg>
